<mxfile host="app.diagrams.net" modified="2023-12-05T09:44:32.143Z" agent="Mozilla/5.0 (Macintosh; Intel Mac OS X 10_15_7) AppleWebKit/605.1.15 (KHTML, like Gecko) Version/16.6 Safari/605.1.15" version="22.1.5" etag="zDw_p1sX7DOUeEwHt21_" type="github">
  <diagram name="Page-1" id="kDiwsL3mMrlWrkFk86Iv">
    <mxGraphModel>
      <root>
        <mxCell id="0" />
        <mxCell id="1" parent="0" />
      </root>
    </mxGraphModel>
  </diagram>
</mxfile>
